<svg width="187" height="47" viewBox="0 0 187 47" fill="none" xmlns="http://www.w3.org/2000/svg">
<path d="M23.6016 34.6621C23.6016 33.1582 23.0645 31.9863 21.9902 31.1465C20.9355 30.3066 19.0703 29.4375 16.3945 28.5391C13.7188 27.6406 11.5312 26.7715 9.83203 25.9316C4.30469 23.2168 1.54102 19.4863 1.54102 14.7402C1.54102 12.377 2.22461 10.2969 3.5918 8.5C4.97852 6.68359 6.93164 5.27734 9.45117 4.28125C11.9707 3.26562 14.8027 2.75781 17.9473 2.75781C21.0137 2.75781 23.7578 3.30469 26.1797 4.39844C28.6211 5.49219 30.5156 7.05469 31.8633 9.08594C33.2109 11.0977 33.8848 13.4023 33.8848 16H23.6309C23.6309 14.2617 23.0938 12.9141 22.0195 11.957C20.9648 11 19.5293 10.5215 17.7129 10.5215C15.877 10.5215 14.4219 10.9316 13.3477 11.752C12.293 12.5527 11.7656 13.5781 11.7656 14.8281C11.7656 15.9219 12.3516 16.918 13.5234 17.8164C14.6953 18.6953 16.7559 19.6133 19.7051 20.5703C22.6543 21.5078 25.0762 22.5234 26.9707 23.6172C31.5801 26.2734 33.8848 29.9355 33.8848 34.6035C33.8848 38.334 32.4785 41.2637 29.666 43.3926C26.8535 45.5215 22.9961 46.5859 18.0938 46.5859C14.6367 46.5859 11.502 45.9707 8.68945 44.7402C5.89648 43.4902 3.78711 41.791 2.36133 39.6426C0.955078 37.4746 0.251953 34.9844 0.251953 32.1719H10.5645C10.5645 34.457 11.1504 36.1465 12.3223 37.2402C13.5137 38.3145 15.4375 38.8516 18.0938 38.8516C19.793 38.8516 21.1309 38.4902 22.1074 37.7676C23.1035 37.0254 23.6016 35.9902 23.6016 34.6621ZM58.9605 46C58.609 45.3555 58.2965 44.4082 58.023 43.1582C56.2066 45.4434 53.6676 46.5859 50.4059 46.5859C47.4176 46.5859 44.8785 45.6875 42.7887 43.8906C40.6988 42.0742 39.6539 39.7988 39.6539 37.0645C39.6539 33.627 40.9234 31.0293 43.4625 29.2715C46.0016 27.5137 49.693 26.6348 54.5367 26.6348H57.5836V24.9648C57.5836 22.0547 56.3238 20.5996 53.8043 20.5996C51.4605 20.5996 50.2887 21.752 50.2887 24.0566H40.4156C40.4156 20.9902 41.7145 18.5 44.3121 16.5859C46.9293 14.6719 50.2594 13.7148 54.3023 13.7148C58.3453 13.7148 61.5387 14.7012 63.8824 16.6738C66.2262 18.6465 67.4273 21.3516 67.4859 24.7891V38.8223C67.525 41.7324 67.9742 43.959 68.8336 45.502V46H58.9605ZM52.7789 39.5547C54.0094 39.5547 55.025 39.291 55.8258 38.7637C56.6461 38.2363 57.232 37.6406 57.5836 36.9766V31.9082H54.7125C51.275 31.9082 49.5563 33.4512 49.5563 36.5371C49.5563 37.4355 49.859 38.168 50.4645 38.7344C51.0699 39.2812 51.8414 39.5547 52.7789 39.5547ZM77.5617 46V21.1562H72.9621V14.3008H77.5617V11.7812C77.5617 8.16797 78.6262 5.36523 80.7551 3.37305C82.884 1.38086 85.8723 0.384766 89.7199 0.384766C91.1262 0.384766 92.6691 0.589844 94.3488 1L94.3781 8.26562C93.7727 8.08984 92.9621 8.00195 91.9465 8.00195C88.9582 8.00195 87.4641 9.29102 87.4641 11.8691V14.3008H93.6457V21.1562H87.4641V46H77.5617ZM126.427 27.9238H110.255V38.0898H129.356V46H99.9715V3.34375H129.415V11.2832H110.255V20.2773H126.427V27.9238ZM153.348 46C152.996 45.3555 152.684 44.4082 152.411 43.1582C150.594 45.4434 148.055 46.5859 144.793 46.5859C141.805 46.5859 139.266 45.6875 137.176 43.8906C135.086 42.0742 134.041 39.7988 134.041 37.0645C134.041 33.627 135.311 31.0293 137.85 29.2715C140.389 27.5137 144.08 26.6348 148.924 26.6348H151.971V24.9648C151.971 22.0547 150.711 20.5996 148.192 20.5996C145.848 20.5996 144.676 21.752 144.676 24.0566H134.803C134.803 20.9902 136.102 18.5 138.7 16.5859C141.317 14.6719 144.647 13.7148 148.69 13.7148C152.733 13.7148 155.926 14.7012 158.27 16.6738C160.614 18.6465 161.815 21.3516 161.873 24.7891V38.8223C161.913 41.7324 162.362 43.959 163.221 45.502V46H153.348ZM147.166 39.5547C148.397 39.5547 149.413 39.291 150.213 38.7637C151.034 38.2363 151.62 37.6406 151.971 36.9766V31.9082H149.1C145.663 31.9082 143.944 33.4512 143.944 36.5371C143.944 37.4355 144.246 38.168 144.852 38.7344C145.457 39.2812 146.229 39.5547 147.166 39.5547ZM181.266 6.41992V14.3008H186.48V21.1562H181.266V35.6582C181.266 36.8496 181.48 37.6797 181.91 38.1484C182.34 38.6172 183.189 38.8516 184.459 38.8516C185.436 38.8516 186.256 38.793 186.92 38.6758V45.7363C185.143 46.3027 183.287 46.5859 181.354 46.5859C177.955 46.5859 175.445 45.7852 173.824 44.1836C172.203 42.582 171.393 40.1504 171.393 36.8887V21.1562H167.35V14.3008H171.393V6.41992H181.266Z" fill="#ED7E43"/>
</svg>
